<?xml version="1.0" encoding="UTF-8" standalone="no"?>
<svg
   width="24.000000"
   height="24.000000"
   viewBox="0 0 24 24"
   fill="none"
   version="1.1"
   id="svg3"
   xmlns="http://www.w3.org/2000/svg"
   xmlns:svg="http://www.w3.org/2000/svg">
  <desc
     id="desc1">
			Created with Pixso.
	</desc>
  <defs
     id="defs1">
    <clipPath
       id="clip501_126">
      <rect
         id="icon / 24 / outline / key-square"
         width="24.000000"
         height="24.000000"
         fill="white"
         fill-opacity="0" />
    </clipPath>
  </defs>
  <rect
     id="rect1"
     width="24.000000"
     height="24.000000"
     fill="#9197B3"
     fill-opacity="0" />
  <g
     clip-path="url(#clip501_126)"
     id="g3">
    <path
       style="color:#000000;fill:#9197b3;stroke-linejoin:round;-inkscape-stroke:none"
       d="M 9,1.25 C 6.4000026,1.25 4.4151672,1.7723328 3.09375,3.09375 1.7723328,4.4151672 1.25,6.4000026 1.25,9 v 6 c 0,2.599997 0.5223328,4.584833 1.84375,5.90625 C 4.4151672,22.227667 6.4000026,22.75 9,22.75 h 6 c 2.599997,0 4.584833,-0.522333 5.90625,-1.84375 C 22.227667,19.584833 22.75,17.599997 22.75,15 V 9 C 22.75,6.4000026 22.227667,4.4151672 20.90625,3.09375 19.584833,1.7723328 17.599997,1.25 15,1.25 Z m 0,1.5 h 6 c 2.399998,0 3.915169,0.4776695 4.84375,1.40625 C 20.772331,5.0848305 21.25,6.6000024 21.25,9 v 6 c 0,2.399998 -0.477669,3.915169 -1.40625,4.84375 C 18.915169,20.772331 17.399998,21.25 15,21.25 H 9 C 6.6000024,21.25 5.0848305,20.772331 4.15625,19.84375 3.2276695,18.915169 2.75,17.399998 2.75,15 V 9 C 2.75,6.6000024 3.2276695,5.0848305 4.15625,4.15625 5.0848305,3.2276695 6.6000024,2.75 9,2.75 Z"
       id="Vector" />
    <path
       style="color:#000000;fill:#9197b3;stroke-linejoin:round;-inkscape-stroke:none"
       d="M 13.330078,5.7695312 C 12.070981,5.7696067 10.813414,6.2451794 9.859375,7.1992187 8.6677642,8.3908295 8.3317654,10.040787 8.6152344,11.583984 l -2.3671875,2.376954 a 0.750075,0.750075 0 0 0 -0.011719,0.01367 c -0.390339,0.412025 -0.5601926,0.842147 -0.4667969,1.449219 l -0.00391,-0.01563 0.1601562,1.201172 a 0.750075,0.750075 0 0 0 0.00391,0.01563 c 0.1174242,0.763257 0.6474108,1.345672 1.4550781,1.449219 l 1.1953125,0.160156 -0.00586,-0.002 c 0.5794591,0.08278 1.0720571,-0.0525 1.4941402,-0.521485 l -0.0293,0.03125 2.384765,-2.367187 c 1.547039,0.297146 3.198092,-0.04575 4.386719,-1.234375 a 0.750075,0.750075 0 0 0 0.002,-0.002 C 18.717924,12.221486 18.719352,9.0962292 16.808594,7.1972656 15.850001,6.2445538 14.589175,5.7694558 13.330078,5.7695312 Z m 0.002,1.4921875 c 0.873401,7.55e-5 1.748516,0.3327134 2.419922,1.0000001 1.328577,1.320376 1.330627,3.4754082 -0.002,4.8183592 -4.26e-4,4.26e-4 -0.0015,-4.26e-4 -0.002,0 -4e-4,4.02e-4 4e-4,0.0016 0,0.002 -0.931216,0.929728 -2.255589,1.209425 -3.423828,0.841797 a 0.750075,0.750075 0 0 0 -0.751953,0.183594 l -2.5898441,2.570312 a 0.750075,0.750075 0 0 0 -0.029297,0.03125 c 0.062084,-0.06898 -0.1874285,0.03628 -0.1679687,0.03906 a 0.750075,0.750075 0 0 0 -0.00586,-0.002 L 7.5800781,16.585937 a 0.750075,0.750075 0 0 0 -0.00391,0 C 7.60384,16.589485 7.4146851,16.413226 7.4121094,16.396484 L 7.2539062,15.210938 a 0.750075,0.750075 0 0 0 -0.00195,-0.01563 c 0.013396,0.08707 0.102605,-0.221479 0.072266,-0.189454 L 9.8808594,12.439453 A 0.750075,0.750075 0 0 0 10.068359,11.693359 C 9.7147347,10.517352 9.9901654,9.1895221 10.919922,8.2597656 11.585881,7.5938066 12.45863,7.2616433 13.332031,7.2617187 Z"
       id="path1" />
    <path
       style="color:#000000;fill:#9197b3;stroke-linecap:round;stroke-linejoin:round;-inkscape-stroke:none"
       d="m 9.5898438,14.669922 a 0.75,0.75 0 0 0 -0.5292969,0.220703 0.75,0.75 0 0 0 0,1.060547 l 0.859375,0.859375 a 0.75,0.75 0 0 0 1.0605471,0 0.75,0.75 0 0 0 0,-1.060547 L 10.121094,14.890625 A 0.75,0.75 0 0 0 9.5898438,14.669922 Z"
       id="path2" />
    <path
       style="color:#000000;fill:#9197b3;stroke-linecap:round;stroke-linejoin:round;-inkscape-stroke:none"
       d="m 13.390625,9.6992188 a 1,1 0 0 0 -1,1.0000002 1,1 0 0 0 1,1 h 0.0098 a 1,1 0 0 0 1,-1 1,1 0 0 0 -1,-1.0000002 z"
       id="path3" />
  </g>
</svg>
