<?xml version="1.0" encoding="UTF-8" standalone="no"?>
<svg
   width="24.000000"
   height="24.000000"
   viewBox="0 0 24 24"
   fill="none"
   version="1.1"
   id="svg36"
   sodipodi:docname="user-square 1-11.svg"
   inkscape:version="1.2.1 (9c6d41e410, 2022-07-14)"
   xmlns:inkscape="http://www.inkscape.org/namespaces/inkscape"
   xmlns:sodipodi="http://sodipodi.sourceforge.net/DTD/sodipodi-0.dtd"
   xmlns="http://www.w3.org/2000/svg"
   xmlns:svg="http://www.w3.org/2000/svg">
  <sodipodi:namedview
     id="namedview38"
     pagecolor="#ffffff"
     bordercolor="#000000"
     borderopacity="0.25"
     inkscape:showpageshadow="2"
     inkscape:pageopacity="0.0"
     inkscape:pagecheckerboard="0"
     inkscape:deskcolor="#d1d1d1"
     showgrid="false"
     inkscape:zoom="34.875"
     inkscape:cx="5.3620072"
     inkscape:cy="12.043011"
     inkscape:window-width="1920"
     inkscape:window-height="1017"
     inkscape:window-x="-8"
     inkscape:window-y="-8"
     inkscape:window-maximized="1"
     inkscape:current-layer="g34" />
  <desc
     id="desc21">
			Created with Pixso.
	</desc>
  <defs
     id="defs25">
    <clipPath
       id="clip501_142">
      <rect
         id="user-square 1"
         width="24.000000"
         height="24.000000"
         fill="white"
         fill-opacity="0" />
    </clipPath>
  </defs>
  <g
     clip-path="url(#clip501_142)"
     id="g34"
     style="display:inline">
    <path
       style="color:#000000;display:inline;fill:#4c3030;stroke-linejoin:round;-inkscape-stroke:none"
       d="M 9,1.25 C 6.4000026,1.25 4.4151672,1.7723328 3.09375,3.09375 1.7723328,4.4151672 1.25,6.4000026 1.25,9 v 6 c 0,1.965395 0.2884292,3.559706 1.0078125,4.8125 0.7193833,1.252794 1.8883496,2.103561 3.3867187,2.529297 a 0.750075,0.750075 0 0 0 0.953125,-0.65625 C 6.7858265,19.558405 9.066926,17.710937 12,17.710937 c 2.933074,0 5.212756,1.847491 5.392578,3.972657 a 0.750075,0.750075 0 0 0 0.951172,0.658203 C 19.846807,21.916299 21.019262,21.06555 21.740234,19.8125 22.461207,18.55945 22.75,16.965395 22.75,15 V 9 C 22.75,6.4000026 22.227667,4.4151672 20.90625,3.09375 19.584833,1.7723328 17.599997,1.25 15,1.25 Z m 0,1.5 h 6 c 2.399998,0 3.915169,0.4776695 4.84375,1.40625 C 20.772331,5.0848305 21.25,6.6000024 21.25,9 v 6 c 0,1.814601 -0.28152,3.145005 -0.810547,4.064453 C 20.023316,19.7877 19.391567,20.24856 18.580078,20.599609 17.816979,18.04604 15.166796,16.210937 12,16.210937 c -3.1676186,0 -5.8178096,1.835583 -6.5878906,4.388672 C 4.6040563,20.248776 3.9739359,19.787764 3.5585938,19.064453 3.0304783,18.144749 2.75,16.814601 2.75,15 V 9 C 2.75,6.6000024 3.2276695,5.0848305 4.15625,4.15625 5.0848305,3.2276695 6.6000024,2.75 9,2.75 Z m 3,3.5 c -2.384038,0 -4.3398438,1.9435149 -4.3398438,4.330078 0,2.386563 1.9532805,4.339844 4.3398438,4.339844 2.386563,0 4.330078,-1.955806 4.330078,-4.339844 C 16.330078,8.1960401 14.384038,6.25 12,6.25 Z m 0,1.5 c 1.575958,0 2.830078,1.2541201 2.830078,2.830078 0,1.575958 -1.256645,2.839844 -2.830078,2.839844 -1.573433,0 -2.8398437,-1.266411 -2.8398437,-2.839844 C 9.1601563,9.0066454 10.424042,7.75 12,7.75 Z"
       id="path341" />
    <path
       id="path360"
       d="M 14.770609,9.9514695 H 8.7706093 c -1.32,0 -2.42,-0.13 -3.35,-0.41 -0.34,-0.1 -0.56,-0.43 -0.54,-0.78 0.25,-2.99 3.28,-5.34 6.8899997,-5.34 3.61,0 6.63,2.34 6.89,5.34 0.03,0.36 -0.19,0.68 -0.54,0.78 -0.93,0.28 -2.03,0.41 -3.35,0.41 z m -8.2799997,-1.69 c 0.66,0.13 1.41,0.19 2.28,0.19 h 5.9999997 c 0.87,0 1.62,-0.06 2.28,-0.19 -0.53,-1.92 -2.72,-3.34 -5.28,-3.34 -2.5599997,0 -4.7499997,1.42 -5.2799997,3.34 z"
       fill="#4C3030"
       fill-opacity="1.000000"
       fill-rule="nonzero"
       style="display:inline;fill:#000000;fill-opacity:1" />
    <path
       style="color:#000000;display:none;fill:#4c3030;stroke-linejoin:round;-inkscape-stroke:none"
       d="M 9,1.25 C 6.4000026,1.25 4.4151672,1.7723328 3.09375,3.09375 1.7723328,4.4151672 1.25,6.4000026 1.25,9 v 6 c 0,1.965395 0.2884292,3.559706 1.0078125,4.8125 0.7193833,1.252794 1.8883496,2.103561 3.3867187,2.529297 a 0.750075,0.750075 0 0 0 0.953125,-0.65625 C 6.7858265,19.558405 9.066926,17.710937 12,17.710937 c 2.933074,0 5.212756,1.847491 5.392578,3.972657 a 0.750075,0.750075 0 0 0 0.951172,0.658203 C 19.846807,21.916299 21.019262,21.06555 21.740234,19.8125 22.461207,18.55945 22.75,16.965395 22.75,15 V 9 C 22.75,6.4000026 22.227667,4.4151672 20.90625,3.09375 19.584833,1.7723328 17.599997,1.25 15,1.25 Z m 0,1.5 h 6 c 2.399998,0 3.915169,0.4776695 4.84375,1.40625 C 20.772331,5.0848305 21.25,6.6000024 21.25,9 v 6 c 0,1.814601 -0.28152,3.145005 -0.810547,4.064453 C 20.023316,19.7877 19.391567,20.24856 18.580078,20.599609 17.816979,18.04604 15.166796,16.210937 12,16.210937 c -3.1676186,0 -5.8178096,1.835583 -6.5878906,4.388672 C 4.6040563,20.248776 3.9739359,19.787764 3.5585938,19.064453 3.0304783,18.144749 2.75,16.814601 2.75,15 V 9 C 2.75,6.6000024 3.2276695,5.0848305 4.15625,4.15625 5.0848305,3.2276695 6.6000024,2.75 9,2.75 Z m 3,3.5 c -2.384038,0 -4.3398438,1.9435149 -4.3398438,4.330078 0,2.386563 1.9532805,4.339844 4.3398438,4.339844 2.386563,0 4.330078,-1.955806 4.330078,-4.339844 C 16.330078,8.1960401 14.384038,6.25 12,6.25 Z m 0,1.5 c 1.575958,0 2.830078,1.2541201 2.830078,2.830078 0,1.575958 -1.256645,2.839844 -2.830078,2.839844 -1.573433,0 -2.8398437,-1.266411 -2.8398437,-2.839844 C 9.1601563,9.0066454 10.424042,7.75 12,7.75 Z"
       id="path363" />
  </g>
  <rect
     id="rect27"
     width="24"
     height="24"
     fill="#ffffff"
     fill-opacity="0"
     x="0"
     y="0"
     style="display:none" />
</svg>
