<?xml version="1.0" encoding="UTF-8" standalone="no"?>
<svg
   width="24.000000"
   height="24.000000"
   viewBox="0 0 24 24"
   fill="none"
   version="1.1"
   id="svg36"
   sodipodi:docname="user-square 1-1.svg"
   inkscape:version="1.2.1 (9c6d41e410, 2022-07-14)"
   xmlns:inkscape="http://www.inkscape.org/namespaces/inkscape"
   xmlns:sodipodi="http://sodipodi.sourceforge.net/DTD/sodipodi-0.dtd"
   xmlns="http://www.w3.org/2000/svg"
   xmlns:svg="http://www.w3.org/2000/svg">
  <sodipodi:namedview
     id="namedview38"
     pagecolor="#ffffff"
     bordercolor="#000000"
     borderopacity="0.25"
     inkscape:showpageshadow="2"
     inkscape:pageopacity="0.0"
     inkscape:pagecheckerboard="0"
     inkscape:deskcolor="#d1d1d1"
     showgrid="false"
     inkscape:zoom="34.875"
     inkscape:cx="11.985663"
     inkscape:cy="12.014337"
     inkscape:window-width="1920"
     inkscape:window-height="1017"
     inkscape:window-x="-8"
     inkscape:window-y="-8"
     inkscape:window-maximized="1"
     inkscape:current-layer="g34" />
  <desc
     id="desc21">
			Created with Pixso.
	</desc>
  <defs
     id="defs25">
    <clipPath
       id="clip501_142">
      <rect
         id="user-square 1"
         width="24.000000"
         height="24.000000"
         fill="white"
         fill-opacity="0" />
    </clipPath>
  </defs>
  <rect
     id="rect27"
     width="24.000000"
     height="24.000000"
     fill="#FFFFFF"
     fill-opacity="0" />
  <g
     clip-path="url(#clip501_142)"
     id="g34">
    <path
       id="path342"
       d="M15 22.74L9 22.74C7.68 22.74 6.58 22.61 5.65 22.33C5.31 22.23 5.09 21.9 5.11 21.55C5.36 18.56 8.39 16.21 12 16.21C15.61 16.21 18.63 18.55 18.89 21.55C18.92 21.91 18.7 22.23 18.35 22.33C17.42 22.61 16.32 22.74 15 22.74ZM6.72 21.05C7.38 21.18 8.13 21.24 9 21.24L15 21.24C15.87 21.24 16.62 21.18 17.28 21.05C16.75 19.13 14.56 17.71 12 17.71C9.44 17.71 7.25 19.13 6.72 21.05Z"
       fill="#4C3030"
       fill-opacity="1.000000"
       fill-rule="nonzero" />
    <path
       style="color:#000000;fill:#4c3030;stroke-linejoin:round;-inkscape-stroke:none"
       d="M 9,1.25 C 6.4000026,1.25 4.4151672,1.7723328 3.09375,3.09375 1.7723328,4.4151672 1.25,6.4000026 1.25,9 v 6 c 0,1.965395 0.2884292,3.559706 1.0078125,4.8125 0.7193833,1.252794 1.8883496,2.103561 3.3867187,2.529297 a 0.750075,0.750075 0 0 0 0.953125,-0.65625 C 6.7858265,19.558405 9.066926,17.710937 12,17.710937 c 2.933074,0 5.212756,1.847491 5.392578,3.972657 a 0.750075,0.750075 0 0 0 0.951172,0.658203 C 19.846807,21.916299 21.019262,21.06555 21.740234,19.8125 22.461207,18.55945 22.75,16.965395 22.75,15 V 9 C 22.75,6.4000026 22.227667,4.4151672 20.90625,3.09375 19.584833,1.7723328 17.599997,1.25 15,1.25 Z m 0,1.5 h 6 c 2.399998,0 3.915169,0.4776695 4.84375,1.40625 C 20.772331,5.0848305 21.25,6.6000024 21.25,9 v 6 c 0,1.814601 -0.28152,3.145005 -0.810547,4.064453 C 20.023316,19.7877 19.391567,20.24856 18.580078,20.599609 17.816979,18.04604 15.166796,16.210937 12,16.210937 c -3.1676186,0 -5.8178096,1.835583 -6.5878906,4.388672 C 4.6040563,20.248776 3.9739359,19.787764 3.5585938,19.064453 3.0304783,18.144749 2.75,16.814601 2.75,15 V 9 C 2.75,6.6000024 3.2276695,5.0848305 4.15625,4.15625 5.0848305,3.2276695 6.6000024,2.75 9,2.75 Z m 3,3.5 c -2.384038,0 -4.3398438,1.9435149 -4.3398438,4.330078 0,2.386563 1.9532805,4.339844 4.3398438,4.339844 2.386563,0 4.330078,-1.955806 4.330078,-4.339844 C 16.330078,8.1960401 14.384038,6.25 12,6.25 Z m 0,1.5 c 1.575958,0 2.830078,1.2541201 2.830078,2.830078 0,1.575958 -1.256645,2.839844 -2.830078,2.839844 -1.573433,0 -2.8398437,-1.266411 -2.8398437,-2.839844 C 9.1601563,9.0066454 10.424042,7.75 12,7.75 Z"
       id="path339" />
    <path
       id="path345"
       d="M11.99 14.92C9.6 14.92 7.66 12.97 7.66 10.58C7.66 8.19 9.6 6.25 11.99 6.25C14.38 6.25 16.32 8.19 16.32 10.58C16.32 12.97 14.38 14.92 11.99 14.92ZM11.99 7.75C10.43 7.75 9.16 9.02 9.16 10.58C9.16 12.15 10.43 13.42 11.99 13.42C13.55 13.42 14.82 12.15 14.82 10.58C14.82 9.02 13.55 7.75 11.99 7.75Z"
       fill="#4C3030"
       fill-opacity="1.000000"
       fill-rule="nonzero" />
  </g>
</svg>
