<?xml version="1.0" encoding="UTF-8" standalone="no"?>
<svg
   width="24.000000"
   height="24.000000"
   viewBox="0 0 24 24"
   fill="none"
   version="1.1"
   id="svg28"
   sodipodi:docname="search 1.svg"
   inkscape:version="1.2.1 (9c6d41e410, 2022-07-14)"
   xmlns:inkscape="http://www.inkscape.org/namespaces/inkscape"
   xmlns:sodipodi="http://sodipodi.sourceforge.net/DTD/sodipodi-0.dtd"
   xmlns="http://www.w3.org/2000/svg"
   xmlns:svg="http://www.w3.org/2000/svg">
  <sodipodi:namedview
     id="namedview30"
     pagecolor="#ffffff"
     bordercolor="#000000"
     borderopacity="0.25"
     inkscape:showpageshadow="2"
     inkscape:pageopacity="0.0"
     inkscape:pagecheckerboard="0"
     inkscape:deskcolor="#d1d1d1"
     showgrid="false"
     inkscape:zoom="34.875"
     inkscape:cx="11.483871"
     inkscape:cy="12.014337"
     inkscape:window-width="1920"
     inkscape:window-height="1017"
     inkscape:window-x="-8"
     inkscape:window-y="-8"
     inkscape:window-maximized="1"
     inkscape:current-layer="g26" />
  <desc
     id="desc17">
			Created with Pixso.
	</desc>
  <defs
     id="defs21">
    <clipPath
       id="clip501_92">
      <rect
         id="search 1"
         width="24.000000"
         height="24.000000"
         fill="white"
         fill-opacity="0" />
    </clipPath>
  </defs>
  <g
     clip-path="url(#clip501_92)"
     id="g26">
    <path
       id="Vector (Граница)"
       style="fill:#a4acad;fill-opacity:1"
       d="M 11 2 C 10.330002 2 9.6690613 2.0709377 9.0390625 2.2109375 C 8.5090635 2.3209373 8.0002334 2.4892192 7.4902344 2.6992188 C 6.9802354 2.9192182 6.5007804 3.1707037 6.0507812 3.4707031 C 5.5407824 3.8107025 5.0708584 4.1908602 4.6308594 4.6308594 C 4.1908602 5.0708584 3.8107025 5.5407824 3.4707031 6.0507812 C 3.1707037 6.5007804 2.9192182 6.9802354 2.6992188 7.4902344 C 2.4892192 8.0002334 2.3209373 8.5090635 2.2109375 9.0390625 C 2.0709377 9.6690613 2 10.330002 2 11 C 2 11.659998 2.0709377 12.319219 2.2109375 12.949219 C 2.3209373 13.479217 2.4892192 13.990002 2.6992188 14.5 C 2.9192182 15.009998 3.1807037 15.489455 3.4707031 15.939453 C 3.8107025 16.449453 4.1908602 16.919375 4.6308594 17.359375 C 5.0708584 17.799375 5.5407824 18.179533 6.0507812 18.519531 C 6.5007804 18.819531 6.9802354 19.069064 7.4902344 19.289062 C 8.0002334 19.499062 8.5090635 19.669297 9.0390625 19.779297 C 9.6690613 19.919297 10.330002 20 11 20 C 11.659998 20 12.319219 19.919297 12.949219 19.779297 C 13.479217 19.669297 13.990002 19.499062 14.5 19.289062 C 15.009998 19.069064 15.489455 18.819531 15.939453 18.519531 C 16.172797 18.363968 16.397681 18.199615 16.615234 18.025391 L 20.289062 21.699219 C 20.679062 22.099217 21.309219 22.099217 21.699219 21.699219 C 22.099217 21.309219 22.099217 20.679062 21.699219 20.289062 L 18.025391 16.615234 C 18.199615 16.397681 18.363968 16.172797 18.519531 15.939453 C 18.819531 15.489455 19.069064 15.009998 19.289062 14.5 C 19.499062 13.990002 19.669297 13.479217 19.779297 12.949219 C 19.919297 12.319219 20 11.659998 20 11 C 20 10.330002 19.919297 9.6690613 19.779297 9.0390625 C 19.669297 8.5090635 19.499062 8.0002334 19.289062 7.4902344 C 19.069064 6.9802354 18.819531 6.5007804 18.519531 6.0507812 C 18.179533 5.5407824 17.799375 5.0708584 17.359375 4.6308594 C 16.919375 4.1908602 16.449453 3.8107025 15.939453 3.4707031 C 15.489455 3.1807037 15.009998 2.9192182 14.5 2.6992188 C 13.990002 2.4892192 13.479217 2.3209373 12.949219 2.2109375 C 12.319219 2.0709377 11.659998 2 11 2 z M 11 4 C 11.529998 4 12.050547 4.0499221 12.560547 4.1699219 C 12.950545 4.2599217 13.340705 4.3790629 13.720703 4.5390625 C 14.110703 4.7090621 14.480078 4.9108598 14.830078 5.1308594 C 15.230078 5.4008588 15.599453 5.700782 15.939453 6.0507812 C 16.289453 6.3907806 16.589375 6.7599227 16.859375 7.1699219 C 17.079375 7.5099211 17.279219 7.879532 17.449219 8.2695312 C 17.609219 8.6495306 17.730314 9.0396883 17.820312 9.4296875 C 17.940312 9.9396865 18 10.460002 18 11 C 18 11.529998 17.940312 12.050547 17.820312 12.560547 C 17.730314 12.950545 17.609219 13.340705 17.449219 13.720703 C 17.279219 14.110703 17.079375 14.480078 16.859375 14.830078 C 16.589375 15.230078 16.289453 15.599453 15.939453 15.939453 C 15.599453 16.289453 15.230078 16.589375 14.830078 16.859375 C 14.480078 17.079375 14.110703 17.279219 13.720703 17.449219 C 13.340705 17.609219 12.950545 17.730314 12.560547 17.820312 C 12.050547 17.940312 11.529998 18 11 18 C 10.460002 18 9.9396865 17.940312 9.4296875 17.820312 C 9.0396883 17.730314 8.6495306 17.609219 8.2695312 17.449219 C 7.879532 17.279219 7.5099211 17.079375 7.1699219 16.859375 C 6.7599227 16.589375 6.3907806 16.289453 6.0507812 15.939453 C 5.700782 15.599453 5.4008588 15.230078 5.1308594 14.830078 C 4.9108598 14.480078 4.7090621 14.110703 4.5390625 13.720703 C 4.3790629 13.340705 4.2599217 12.950545 4.1699219 12.560547 C 4.0499221 12.050547 4 11.529998 4 11 C 4 10.460002 4.0499221 9.9396865 4.1699219 9.4296875 C 4.2599217 9.0396883 4.3790629 8.6495306 4.5390625 8.2695312 C 4.7090621 7.879532 4.9108598 7.5099211 5.1308594 7.1699219 C 5.4008588 6.7599227 5.700782 6.3907806 6.0507812 6.0507812 C 6.3907806 5.700782 6.7599227 5.4008588 7.1699219 5.1308594 C 7.5099211 4.9108598 7.879532 4.7090621 8.2695312 4.5390625 C 8.6495306 4.3790629 9.0396883 4.2599217 9.4296875 4.1699219 C 9.9396865 4.0499221 10.460002 4 11 4 z " />
  </g>
</svg>
