<?xml version="1.0" encoding="UTF-8" standalone="no"?>
<svg
   width="24.000000"
   height="24.000000"
   viewBox="0 0 24 24"
   fill="none"
   version="1.1"
   id="svg36"
   sodipodi:docname="user-square 1-18.svg"
   inkscape:version="1.2.1 (9c6d41e410, 2022-07-14)"
   xmlns:inkscape="http://www.inkscape.org/namespaces/inkscape"
   xmlns:sodipodi="http://sodipodi.sourceforge.net/DTD/sodipodi-0.dtd"
   xmlns="http://www.w3.org/2000/svg"
   xmlns:svg="http://www.w3.org/2000/svg">
  <sodipodi:namedview
     id="namedview38"
     pagecolor="#ffffff"
     bordercolor="#000000"
     borderopacity="0.25"
     inkscape:showpageshadow="2"
     inkscape:pageopacity="0.0"
     inkscape:pagecheckerboard="0"
     inkscape:deskcolor="#d1d1d1"
     showgrid="false"
     inkscape:zoom="34.875"
     inkscape:cx="11.483871"
     inkscape:cy="12.043011"
     inkscape:window-width="1920"
     inkscape:window-height="1017"
     inkscape:window-x="-8"
     inkscape:window-y="-8"
     inkscape:window-maximized="1"
     inkscape:current-layer="svg36" />
  <desc
     id="desc21">
			Created with Pixso.
	</desc>
  <defs
     id="defs25">
    <clipPath
       id="clip501_142">
      <rect
         id="user-square 1"
         width="24.000000"
         height="24.000000"
         fill="white"
         fill-opacity="0" />
    </clipPath>
  </defs>
  <rect
     id="rect27"
     width="24.000000"
     height="24.000000"
     fill="#FFFFFF"
     fill-opacity="0" />
  <g
     clip-path="url(#clip501_142)"
     id="g34">
    <path
       id="path339"
       style="color:#000000;display:inline;fill:#4c3030;stroke-linejoin:round;-inkscape-stroke:none"
       d="M 9 1.25 C 6.4000052 1.25 4.4151659 1.7723341 3.09375 3.09375 C 1.7723341 4.4151659 1.25 6.4000052 1.25 9 L 1.25 15 C 1.25 16.965393 1.5384299 18.559707 2.2578125 19.8125 C 2.9771951 21.065293 4.1461636 21.916061 5.6445312 22.341797 A 0.750075 0.750075 0 0 0 5.7070312 22.345703 C 6.62516 22.614274 7.7063001 22.740234 9 22.740234 L 15 22.740234 C 16.29646 22.740234 17.379442 22.613509 18.298828 22.34375 A 0.750075 0.750075 0 0 0 18.34375 22.341797 C 19.846805 21.916299 21.019263 21.065549 21.740234 19.8125 C 22.461207 18.559451 22.75 16.965393 22.75 15 L 22.75 9 C 22.75 6.4000052 22.227666 4.4151659 20.90625 3.09375 C 19.584834 1.7723341 17.599994 1.25 15 1.25 L 9 1.25 z M 9 2.75 L 15 2.75 C 17.399996 2.75 18.91517 3.2276704 19.84375 4.15625 C 20.77233 5.0848296 21.25 6.6000048 21.25 9 L 21.25 15 C 21.25 16.814599 20.96848 18.145006 20.439453 19.064453 C 20.043311 19.752948 19.449335 20.202313 18.693359 20.546875 C 17.975423 18.199449 15.526828 16.441334 12.587891 16.232422 C 12.393862 16.218629 12.197934 16.210938 12 16.210938 C 11.802066 16.210938 11.606193 16.218574 11.412109 16.232422 C 11.218985 16.246201 11.02844 16.267989 10.839844 16.294922 C 8.1580892 16.677901 5.9713902 18.360707 5.3046875 20.548828 C 4.5491437 20.204114 3.954959 19.754716 3.5585938 19.064453 C 3.0304788 18.14475 2.75 16.814599 2.75 15 L 2.75 9 C 2.75 6.6000048 3.2276704 5.0848296 4.15625 4.15625 C 5.0848296 3.2276704 6.6000048 2.75 9 2.75 z M 12 6.25 C 9.6159644 6.25 7.6601562 8.1935174 7.6601562 10.580078 C 7.6601562 12.966639 9.6134391 14.919922 12 14.919922 C 14.386561 14.919922 16.330078 12.964114 16.330078 10.580078 C 16.330078 8.1960426 14.384036 6.25 12 6.25 z M 12 7.75 C 13.575956 7.75 14.830078 9.0041218 14.830078 10.580078 C 14.830078 12.156035 13.573431 13.419922 12 13.419922 C 10.426569 13.419922 9.1601562 12.15351 9.1601562 10.580078 C 9.1601562 9.0066471 10.424044 7.75 12 7.75 z M 12 17.710938 C 12.183317 17.710938 12.363156 17.718372 12.541016 17.732422 C 12.718875 17.746472 12.894711 17.767588 13.066406 17.794922 C 13.234785 17.821728 13.400722 17.853727 13.5625 17.892578 C 13.567712 17.893822 13.572919 17.895229 13.578125 17.896484 C 15.45234 18.351572 16.853431 19.592661 17.271484 21.052734 C 16.613371 21.181677 15.866585 21.240234 15 21.240234 L 9 21.240234 C 8.1308179 21.240234 7.3822047 21.180528 6.7226562 21.050781 C 6.7309435 21.022285 6.7370612 20.993167 6.7460938 20.964844 C 6.7539539 20.938994 6.76107 20.912377 6.7695312 20.886719 C 7.2481181 19.498468 8.6188474 18.334208 10.421875 17.896484 C 10.427084 17.89522 10.432284 17.893831 10.4375 17.892578 C 10.599322 17.853723 10.765188 17.821729 10.933594 17.794922 C 11.105316 17.767586 11.281113 17.746472 11.458984 17.732422 C 11.636856 17.718371 11.816683 17.710938 12 17.710938 z " />
  </g>
  <g
     clip-path="url(#clip501_142)"
     id="g1344" />
</svg>
