<?xml version="1.0" encoding="UTF-8" standalone="no"?>
<svg
   width="24.000000"
   height="24.000000"
   viewBox="0 0 24 24"
   fill="none"
   version="1.1"
   id="svg4"
   xmlns="http://www.w3.org/2000/svg"
   xmlns:svg="http://www.w3.org/2000/svg">
  <desc
     id="desc1">
			Created with Pixso.
	</desc>
  <defs
     id="defs1">
    <clipPath
       id="clip501_150">
      <rect
         id="wallet-money 2"
         width="24.000000"
         height="24.000000"
         fill="white"
         fill-opacity="0" />
    </clipPath>
  </defs>
  <g
     clip-path="url(#clip501_150)"
     id="g4">
    <path
       style="color:#000000;fill:#9197b3;stroke-linejoin:round;-inkscape-stroke:none"
       d="m 3.5996094,16.121094 a 0.750075,0.750075 0 0 0 -0.75,0.738281 v 2.03125 c 0,2.188021 2.0072885,3.859375 4.3300781,3.859375 C 9.5024771,22.75 11.5,21.075739 11.5,18.890625 v -2.03125 a 0.750075,0.750075 0 0 0 -1.5,0 c 0,0.621081 -0.2717837,1.127448 -0.7675781,1.527344 -0.4957945,0.399896 -1.2238266,0.664062 -2.0527344,0.664062 -0.8359588,0 -1.5664451,-0.26178 -2.0625,-0.660156 -0.4960549,-0.398376 -0.7675781,-0.903809 -0.7675781,-1.53125 a 0.750075,0.750075 0 0 0 -0.75,-0.738281 z M 9.5,19.917969 C 9.0368915,20.654263 8.2934908,21.25 7.1796875,21.25 c -1.1101976,0 -1.8547734,-0.593715 -2.3222656,-1.326172 0.6898977,0.370878 1.4616583,0.626953 2.3222656,0.626953 0.8599952,0 1.6313281,-0.259116 2.3203125,-0.632812 z"
       id="Vector" />
    <path
       style="color:#000000;fill:#9197b3;stroke-linejoin:round;-inkscape-stroke:none"
       d="m 7.1601562,10.259766 c -1.1611029,0 -2.2295633,0.400103 -3.0234375,1.095703 -0.7798586,0.682376 -1.2968749,1.661349 -1.2968749,2.753906 0,0.639999 0.1820164,1.238908 0.4863281,1.746094 a 0.750075,0.750075 0 0 0 0.00391,0.0078 c 0.7553028,1.228968 2.2219882,1.925781 3.8398438,1.925781 1.6142841,0 3.0865641,-0.688033 3.8417971,-1.929687 a 0.750075,0.750075 0 0 0 0.002,-0.0039 C 11.317984,15.348283 11.5,14.749374 11.5,14.109375 c 0,-1.090643 -0.515222,-2.08395 -1.326172,-2.761719 -0.7888682,-0.677409 -1.8494909,-1.08789 -3.0136718,-1.08789 z m 0,1.5 c 0.8132316,0 1.530424,0.288621 2.0410157,0.728515 a 0.750075,0.750075 0 0 0 0.00781,0.0078 C 9.7155686,12.918247 10,13.481934 10,14.109375 c 0,0.359331 -0.098366,0.680281 -0.2734375,0.972656 -0.4254157,0.697225 -1.372166,1.207032 -2.5566406,1.207031 -1.1802468,0 -2.1309314,-0.519604 -2.5566407,-1.208984 -0.1744554,-0.291936 -0.2734375,-0.612041 -0.2734375,-0.970703 0,-0.627441 0.2830631,-1.187377 0.7832032,-1.625 a 0.750075,0.750075 0 0 0 0.00195,0 c 0.5059953,-0.443719 1.2168742,-0.724609 2.0351562,-0.724609 z"
       id="path1" />
    <path
       style="color:#000000;fill:#9197b3;stroke-linejoin:round;-inkscape-stroke:none"
       d="m 7.1796875,10.25 c -2.3310078,0 -4.3300781,1.674261 -4.3300781,3.859375 v 2.75 c 0,1.090379 0.5344533,2.054043 1.3339843,2.693359 0.7995311,0.639317 1.8562726,0.986328 2.9960938,0.986328 1.1385522,0 2.1942647,-0.345419 2.9921875,-0.984375 C 10.969798,18.915732 11.5,17.951932 11.5,16.859375 v -2.75 c 0,-1.092557 -0.513686,-2.078382 -1.296875,-2.763672 a 0.750075,0.750075 0 0 0 -0.0039,-0.0039 C 9.4098117,10.661692 8.346454,10.25 7.1796875,10.25 Z m 0,1.5 c 0.8125412,0 1.5285548,0.289252 2.0390625,0.728516 C 9.7133548,12.912843 10,13.483445 10,14.109375 v 2.75 c 0,0.627441 -0.2710491,1.129347 -0.765625,1.525391 -0.4945759,0.396043 -1.2232416,0.654296 -2.0546875,0.654296 -0.8301768,0 -1.5625792,-0.26002 -2.0605469,-0.658203 C 4.6211729,17.982677 4.3496094,17.478994 4.3496094,16.859375 v -2.75 c 0,-1.254882 1.2010898,-2.359375 2.8300781,-2.359375 z"
       id="path2" />
    <path
       style="color:#000000;fill:#9197b3;stroke-linejoin:round;-inkscape-stroke:none"
       d="m 18.919922,9.1894531 c -0.754896,0 -1.468558,0.300187 -1.982422,0.8261719 -0.567137,0.559357 -0.89326,1.362925 -0.814453,2.216797 5.2e-5,6.27e-4 -5.3e-5,0.0013 0,0.002 0.126244,1.502433 1.461114,2.554688 2.90625,2.554688 H 21 a 0.750075,0.750075 0 0 0 0.02734,0 C 21.965446,14.755559 22.75,13.979296 22.75,13.029297 v -2.068359 c 0,-0.95 -0.775643,-1.7357098 -1.722656,-1.7695317 A 0.750075,0.750075 0 0 0 21,9.1894531 Z m 0,1.4999999 h 2.052734 c 0.172986,0.0062 0.277344,0.121485 0.277344,0.271485 v 2.068359 c 0,0.148914 -0.09606,0.251917 -0.275391,0.259766 h -1.945312 c -0.714259,0 -1.357396,-0.525078 -1.41211,-1.181641 a 0.750075,0.750075 0 0 0 0,-0.0078 c -0.03791,-0.39809 0.112116,-0.764905 0.376954,-1.023437 a 0.750075,0.750075 0 0 0 0.01367,-0.01367 c 0.225914,-0.232019 0.548539,-0.373047 0.91211,-0.373047 z"
       id="path3" />
    <path
       style="color:#000000;fill:#9197b3;stroke-linecap:round;stroke-linejoin:round;-inkscape-stroke:none"
       d="M 7,2.75 C 6.7022139,2.75 6.399472,2.7634379 6.078125,2.8222656 3.2141309,3.1908688 1.25,5.4853168 1.25,8.5 v 2 A 0.75,0.75 0 0 0 2,11.25 0.75,0.75 0 0 0 2.75,10.5 v -2 c 0,-2.418527 1.3077053,-3.9160343 3.5332031,-4.1953125 a 0.750075,0.750075 0 0 0 0.048828,-0.00781 C 6.5191861,4.2608837 6.7272417,4.25 7,4.25 h 9 c 0.26,0 0.470264,0.00318 0.626953,0.029297 a 0.750075,0.750075 0 0 0 0.03711,0.00586 C 18.916271,4.5470409 20.25,6.064747 20.25,8.5 v 0.6992188 h -1.330078 c -0.754254,0 -1.461636,0.3057931 -1.970703,0.8261722 -0.568874,0.561053 -0.89367,1.364364 -0.826172,2.214843 a 0.750075,0.750075 0 0 0 0,0.002 c 0.125286,1.503434 1.463632,2.558593 2.916015,2.558593 H 20.25 V 15.5 c 0,1.333332 -0.432774,2.370274 -1.15625,3.09375 C 18.370274,19.317226 17.333332,19.75 16,19.75 h -2.5 a 0.75,0.75 0 0 0 -0.75,0.75 0.75,0.75 0 0 0 0.75,0.75 H 16 c 1.666665,0 3.129728,-0.567228 4.15625,-1.59375 C 21.182772,18.629728 21.75,17.166665 21.75,15.5 v -1.449219 a 0.750075,0.750075 0 0 0 -0.75,-0.75 h -1.960938 c -0.726961,0 -1.366161,-0.525901 -1.421875,-1.18164 -0.03144,-0.403714 0.12232,-0.7751 0.386719,-1.033203 a 0.750075,0.750075 0 0 0 0.01367,-0.01367 c 0.230625,-0.236859 0.538773,-0.373047 0.902344,-0.373047 H 21 A 0.750075,0.750075 0 0 0 21.75,9.9492188 V 8.5 C 21.75,5.4611287 19.750267,3.1439217 16.851562,2.7988281 16.537824,2.749004 16.253589,2.75 16,2.75 Z"
       id="path4" />
  </g>
</svg>
